<svg xmlns="http://www.w3.org/2000/svg" width="1200" height="630" viewBox="0 0 1200 630">
  <defs>
    <linearGradient id="bg" x1="0" y1="0" x2="1" y2="1">
      <stop offset="0%" stop-color="#fff8f7"/>
      <stop offset="55%" stop-color="#ffe9ef"/>
      <stop offset="100%" stop-color="#f6f1ff"/>
    </linearGradient>
    <linearGradient id="sea" x1="0" y1="0" x2="1" y2="0">
      <stop offset="0%" stop-color="#bde7da"/>
      <stop offset="100%" stop-color="#d9d1ff"/>
    </linearGradient>
  </defs>
  <rect width="1200" height="630" fill="url(#bg)"/>
  <circle cx="980" cy="120" r="110" fill="#f8bfd0" opacity="0.45"/>
  <circle cx="180" cy="120" r="90" fill="#d8d0ff" opacity="0.45"/>
  <rect x="80" y="72" width="1040" height="486" rx="36" fill="#ffffff" opacity="0.78"/>
  <rect x="80" y="400" width="1040" height="110" rx="24" fill="url(#sea)" opacity="0.65"/>
  <path d="M140 430 C260 390, 360 470, 480 430 S700 390, 820 430 S980 470, 1080 425" fill="none" stroke="#ffffff" stroke-width="8" stroke-linecap="round" opacity="0.8"/>
  <text x="130" y="200" fill="#9f4967" font-family="-apple-system,BlinkMacSystemFont,'Segoe UI',sans-serif" font-size="30" font-weight="700">Cute Birthday Edition</text>
  <text x="130" y="285" fill="#2c2432" font-family="-apple-system,BlinkMacSystemFont,'Segoe UI',sans-serif" font-size="72" font-weight="800">釜山旅行手冊</text>
  <text x="130" y="345" fill="#6e6170" font-family="-apple-system,BlinkMacSystemFont,'Segoe UI',sans-serif" font-size="28">海景、咖啡、散步、生日感，5 天 4 夜的可愛旅行 guide</text>
  <rect x="130" y="386" width="190" height="46" rx="23" fill="#fff4da"/>
  <text x="154" y="417" fill="#94621f" font-family="-apple-system,BlinkMacSystemFont,'Segoe UI',sans-serif" font-size="24" font-weight="700">Busan Trip Guide</text>
  <g transform="translate(935 235)">
    <rect x="0" y="36" width="96" height="60" rx="12" fill="#ffd7b8"/>
    <rect x="10" y="18" width="76" height="26" rx="10" fill="#fff1f5"/>
    <circle cx="18" cy="16" r="10" fill="#f79db9"/>
    <circle cx="48" cy="10" r="11" fill="#ffd88c"/>
    <circle cx="76" cy="18" r="10" fill="#bde7da"/>
    <rect x="46" y="-8" width="4" height="22" rx="2" fill="#8c6676"/>
    <circle cx="48" cy="-12" r="6" fill="#ffb36b"/>
  </g>
</svg>