<svg xmlns="http://www.w3.org/2000/svg" width="1200" height="630" viewBox="0 0 1200 630">
  <defs>
    <linearGradient id="bg" x1="0" y1="0" x2="1" y2="1">
      <stop offset="0%" stop-color="#fffaf9"/>
      <stop offset="58%" stop-color="#ffeef3"/>
      <stop offset="100%" stop-color="#f4efff"/>
    </linearGradient>
    <linearGradient id="sea" x1="0" y1="0" x2="1" y2="0">
      <stop offset="0%" stop-color="#caebdf"/>
      <stop offset="100%" stop-color="#ddd7ff"/>
    </linearGradient>
  </defs>
  <rect width="1200" height="630" fill="url(#bg)"/>
  <circle cx="1080" cy="110" r="126" fill="#efb0c7" opacity="0.45"/>
  <circle cx="155" cy="105" r="84" fill="#ddd7ff" opacity="0.58"/>
  <rect x="64" y="56" width="1072" height="518" rx="46" fill="#ffffff" opacity="0.82"/>
  <rect x="96" y="420" width="1008" height="90" rx="26" fill="url(#sea)" opacity="0.78"/>
  <path d="M128 444 C232 402, 346 474, 486 432 S714 396, 850 432 S1000 472, 1088 434" fill="none" stroke="#ffffff" stroke-width="9" stroke-linecap="round" opacity="0.92"/>
  <text x="126" y="166" fill="#a95472" font-family="-apple-system,BlinkMacSystemFont,'Segoe UI',sans-serif" font-size="26" font-weight="700">Busan Birthday Trip Guide</text>
  <text x="126" y="275" fill="#2c2432" font-family="-apple-system,BlinkMacSystemFont,'Segoe UI',sans-serif" font-size="78" font-weight="800">釜山生日旅行手冊</text>
  <text x="126" y="334" fill="#6e6472" font-family="-apple-system,BlinkMacSystemFont,'Segoe UI',sans-serif" font-size="28">海景、散步、咖啡、舒服晚餐，做成一份可以直接分享的釜山小手冊</text>
  <rect x="126" y="372" width="250" height="48" rx="24" fill="#fff4df"/>
  <text x="152" y="404" fill="#9a6521" font-family="-apple-system,BlinkMacSystemFont,'Segoe UI',sans-serif" font-size="24" font-weight="700">5 Days · Cute Birthday Edition</text>
  <g transform="translate(926 218)">
    <rect x="0" y="44" width="112" height="68" rx="16" fill="#ffd7bf"/>
    <rect x="12" y="22" width="88" height="30" rx="12" fill="#fff4f7"/>
    <circle cx="24" cy="18" r="11" fill="#ef9fb8"/>
    <circle cx="56" cy="10" r="12" fill="#ffd58b"/>
    <circle cx="88" cy="18" r="11" fill="#caebdf"/>
    <rect x="54" y="-10" width="4" height="24" rx="2" fill="#8d6976"/>
    <circle cx="56" cy="-14" r="6" fill="#ffb66e"/>
  </g>
</svg>