<svg xmlns="http://www.w3.org/2000/svg" width="1200" height="630" viewBox="0 0 1200 630">
  <defs>
    <linearGradient id="bg" x1="0" y1="0" x2="1" y2="1">
      <stop offset="0%" stop-color="#fff9f8"/>
      <stop offset="55%" stop-color="#ffeef2"/>
      <stop offset="100%" stop-color="#f5f0ff"/>
    </linearGradient>
    <linearGradient id="sea" x1="0" y1="0" x2="1" y2="0">
      <stop offset="0%" stop-color="#c6e9df"/>
      <stop offset="100%" stop-color="#ddd7ff"/>
    </linearGradient>
  </defs>
  <rect width="1200" height="630" fill="url(#bg)"/>
  <circle cx="1030" cy="120" r="120" fill="#efb1c6" opacity="0.42"/>
  <circle cx="180" cy="120" r="90" fill="#ddd7ff" opacity="0.55"/>
  <rect x="70" y="58" width="1060" height="514" rx="42" fill="#ffffff" opacity="0.80"/>
  <rect x="100" y="414" width="1000" height="92" rx="26" fill="url(#sea)" opacity="0.72"/>
  <path d="M130 440 C240 400, 360 472, 500 430 S720 394, 860 430 S1000 470, 1080 432" fill="none" stroke="#ffffff" stroke-width="9" stroke-linecap="round" opacity="0.9"/>
  <text x="128" y="180" fill="#ab5471" font-family="-apple-system,BlinkMacSystemFont,'Segoe UI',sans-serif" font-size="28" font-weight="700">Busan Trip Guide · Birthday Edition</text>
  <text x="128" y="280" fill="#2c2432" font-family="-apple-system,BlinkMacSystemFont,'Segoe UI',sans-serif" font-size="76" font-weight="800">釜山旅行手冊</text>
  <text x="128" y="338" fill="#6f6472" font-family="-apple-system,BlinkMacSystemFont,'Segoe UI',sans-serif" font-size="28">海景、散步、咖啡與生日感晚餐，5 天 4 夜整理成一頁好讀 guide</text>
  <rect x="128" y="374" width="206" height="48" rx="24" fill="#fff4df"/>
  <text x="154" y="406" fill="#9a6521" font-family="-apple-system,BlinkMacSystemFont,'Segoe UI',sans-serif" font-size="24" font-weight="700">5 Days in Busan</text>
  <g transform="translate(920 220)">
    <rect x="0" y="42" width="108" height="66" rx="14" fill="#ffd8bd"/>
    <rect x="12" y="20" width="84" height="30" rx="11" fill="#fff4f7"/>
    <circle cx="22" cy="18" r="11" fill="#ef9fb9"/>
    <circle cx="54" cy="11" r="12" fill="#ffd486"/>
    <circle cx="86" cy="18" r="11" fill="#c9eadf"/>
    <rect x="52" y="-10" width="4" height="24" rx="2" fill="#8d6976"/>
    <circle cx="54" cy="-14" r="6" fill="#ffb66e"/>
  </g>
</svg>